PathFileType	4	(x/y/z)	S08_P20_T14
DataRate	CameraRate	NumFrames	NumMarkers	Units	OrigDataRate	OrigDataStartFrame	OrigNumFrames
240	240	11	51	mm	240	50	394
Frame#	Time	Sternum			R.Acromium			L.Acromium			Top.Head			R.ASIS			L.ASIS			R.PSIS			L.PSIS			R.Great.Tro			L.Great.Tro			R.Iliac.Crest			L.Iliac.Crest			V.Sacral			R.Thigh.Upper.Post			R.Thigh.Lower.Ant			R.Thigh.Lower.Post			R.Thigh.Upper.Ant			R.Knee.Lat			R.Knee.Med			R.Shank.Upper.Post			R.Shank.Lower.Ant			R.Shank.Lower.Post			R.Shank.Upper.Ant			R.Ankle.Lat			R.Ankle.Med			R.Heel.Upper			R.Heel.Med			R.Heel.Lat			R.Toe.Lat			R.Toe.Med			R.Toe.Tip			L.Thigh.Upper.Post			L.Thigh.Lower.Ant			L.Thigh.Lower.Post			L.Thigh.Upper.Ant			L.Knee.Lat			L.Knee.Med			L.Shank.Upper.Post			L.Shank.Lower.Ant			L.Shank.Lower.Post			L.Shank.Upper.Ant			L.Ankle.Lat			L.Ankle.Med			L.Heel.Upper			L.Heel.Med			L.Heel.Lat			L.Toe.Lat			L.Toe.Med			L.Toe.Tip			Cervical.Spine			Back			
		X1	Y1	Z1	X2	Y2	Z2	X3	Y3	Z3	X4	Y4	Z4	X5	Y5	Z5	X6	Y6	Z6	X7	Y7	Z7	X8	Y8	Z8	X9	Y9	Z9	X10	Y10	Z10	X11	Y11	Z11	X12	Y12	Z12	X13	Y13	Z13	X14	Y14	Z14	X15	Y15	Z15	X16	Y16	Z16	X17	Y17	Z17	X18	Y18	Z18	X19	Y19	Z19	X20	Y20	Z20	X21	Y21	Z21	X22	Y22	Z22	X23	Y23	Z23	X24	Y24	Z24	X25	Y25	Z25	X26	Y26	Z26	X27	Y27	Z27	X28	Y28	Z28	X29	Y29	Z29	X30	Y30	Z30	X31	Y31	Z31	X32	Y32	Z32	X33	Y33	Z33	X34	Y34	Z34	X35	Y35	Z35	X36	Y36	Z36	X37	Y37	Z37	X38	Y38	Z38	X39	Y39	Z39	X40	Y40	Z40	X41	Y41	Z41	X42	Y42	Z42	X43	Y43	Z43	X44	Y44	Z44	X45	Y45	Z45	X46	Y46	Z46	X47	Y47	Z47	X48	Y48	Z48	X49	Y49	Z49	X50	Y50	Z50	X51	Y51	Z51	

50	0.20417	NaN	NaN	NaN	-1213.3	1457.6	479.25	-1236.8	1483.6	143.78	-1214.7	1776.6	330.01	-1126	1002.7	412.54	NaN	NaN	NaN	NaN	NaN	NaN	NaN	NaN	NaN	-1224.8	1070.1	462.54	-1207.3	908.61	113.5	-1199.4	888.32	480.41	-1222.7	1096.6	154.84	-1346.1	992.65	291.24	-1204.9	684.58	470.68	-1117.3	593.09	455.59	-1186.1	595.61	456.6	-1126	686.58	467.92	-1150	495.89	448.67	-1155	495.85	315.05	-1320.4	414.85	454.1	-1324.7	325.43	432.01	-1379.3	365.42	444.4	-1268.6	375.47	441.61	-1507.9	262.37	415.29	-1470.9	246.91	336.34	-1556.4	292.28	366.33	-1564.5	273.92	335.04	-1575.7	273.11	395.45	-1511.3	101.19	420.94	-1477.2	112.15	309.47	-1430.3	63.989	351.82	-1176	692.19	136.83	-1068.5	628.19	163.91	-1137.5	611.7	158.95	-1103.1	706.52	136.75	-1101.2	520.01	181.91	-1103.1	525.48	307.18	-1152.4	337.3	186.15	-1083.7	253.82	214.73	-1155.7	264.88	204.56	-1086.2	327.64	194.59	-1135.6	98.056	227.27	-1112.4	104.04	314.71	-1185.7	73.313	277.73	-1173.5	39.588	307.7	-1178	48.393	244.23	-1001.9	40.996	213.83	-983.23	45.795	328.9	-920.74	62.414	281.95	-1289.4	1514.3	307.83	-1337	1231.5	317.93
51	0.20833	NaN	NaN	NaN	-1207.9	1458.3	479.1	-1231.4	1484.2	143.58	-1209.3	1777.3	329.62	-1120.6	1003.2	412.2	NaN	NaN	NaN	NaN	NaN	NaN	NaN	NaN	NaN	-1219.6	1070.4	462.3	-1202.4	909.28	113.21	-1193	888.73	479.92	-1217.4	1097.3	154.65	-1340.8	993.25	290.93	-1195.8	685.12	470.48	-1107	594.63	455.54	-1176.4	596.37	456.28	-1117.1	688.07	467.76	-1138.4	497.23	448.7	-1143.8	497.11	314.93	-1308.2	416.54	454.35	-1313.6	327.28	432.01	-1367.5	367.25	444.65	-1257.3	377.01	441.51	-1497	265.31	415.39	-1460.2	249.43	336.55	-1545.4	294.95	366.37	-1553.7	276.44	335.18	-1565	276.11	395.62	-1500.4	104.25	422.09	-1466.5	114.21	310.63	-1420.1	65.189	353.08	-1172.7	692.72	136.7	-1065.9	627.8	163.61	-1134.8	611.95	158.77	-1099.8	706.45	136.41	-1099	520.02	181.78	-1101.1	525.51	306.98	-1151.2	337.52	186.1	-1082.9	253.69	214.63	-1154.9	265.03	204.55	-1085	327.5	194.42	-1135.4	98.15	227.33	-1112.3	104.05	314.52	-1185.7	73.373	277.7	-1173.5	39.636	307.7	-1177.9	48.448	244.2	-1001.8	40.962	213.76	-983.25	45.742	328.9	-920.71	62.292	281.88	-1283.8	1514.9	307.56	-1331.8	1232.2	317.67
52	0.2125	NaN	NaN	NaN	-1202.5	1459	478.97	-1225.9	1484.8	143.4	-1203.9	1778	329.23	-1115.2	1003.8	411.89	NaN	NaN	NaN	NaN	NaN	NaN	NaN	NaN	NaN	-1214.4	1070.9	462.05	-1197.5	909.94	112.93	-1186.7	889.23	479.46	-1212.1	1098.1	154.45	-1335.6	993.88	290.6	-1186.8	685.78	470.24	-1096.8	596.33	455.43	-1166.6	597.25	455.94	-1108.2	689.69	467.58	-1126.8	498.71	448.7	-1132.7	498.5	314.79	-1296.1	418.2	454.52	-1302.4	329.1	431.96	-1355.6	368.98	444.82	-1245.9	378.61	441.39	-1485.8	267.97	415.4	-1449.2	251.72	336.69	-1534.3	297.19	366.31	-1542.8	278.48	335.23	-1554.1	278.64	395.68	-1489	107.11	423.24	-1455.3	116.07	311.79	-1409.4	66.358	354.39	-1169.5	693.28	136.6	-1063.3	627.4	163.34	-1132.2	612.2	158.61	-1096.5	706.38	136.11	-1096.9	520.04	181.67	-1099.1	525.54	306.81	-1150.1	337.74	186.07	-1082.1	253.57	214.54	-1154.1	265.18	204.56	-1083.9	327.39	194.26	-1135.3	98.246	227.38	-1112.3	104.07	314.35	-1185.7	73.434	277.68	-1173.5	39.687	307.69	-1177.9	48.507	244.16	-1001.8	40.923	213.69	-983.28	45.682	328.9	-920.69	62.184	281.8	-1278.2	1515.6	307.31	-1326.5	1232.9	317.42
53	0.21667	NaN	NaN	NaN	-1197.2	1459.7	478.84	-1220.5	1485.4	143.23	-1198.4	1778.7	328.86	-1109.9	1004.5	411.59	-1109.9	1016.1	181.71	NaN	NaN	NaN	NaN	NaN	NaN	-1209.2	1071.4	461.8	-1192.6	910.6	112.68	-1180.4	889.82	479.03	-1206.7	1098.8	154.25	-1330.4	994.55	290.26	-1177.8	686.56	469.97	-1086.6	598.17	455.25	-1156.8	598.27	455.59	-1099.3	691.42	467.37	-1115.4	500.35	448.65	-1121.8	500.02	314.61	-1284.1	419.82	454.62	-1291.1	330.88	431.86	-1343.7	370.6	444.91	-1234.2	380.24	441.25	-1474.5	270.35	415.34	-1438	253.78	336.77	-1523	299	366.18	-1531.7	280.05	335.2	-1543.2	280.72	395.66	-1477.1	109.75	424.4	-1443.7	117.7	312.95	-1398.2	67.483	355.74	-1166.3	693.85	136.52	-1060.8	627.02	163.08	-1129.7	612.48	158.47	-1093.3	706.31	135.82	-1095	520.07	181.57	-1097.1	525.55	306.67	-1149	337.98	186.04	-1081.4	253.48	214.46	-1153.4	265.33	204.58	-1082.8	327.29	194.1	-1135.1	98.343	227.44	-1112.2	104.11	314.21	-1185.7	73.495	277.66	-1173.5	39.742	307.68	-1177.9	48.572	244.13	-1001.8	40.881	213.63	-983.32	45.618	328.91	-920.66	62.088	281.72	-1272.7	1516.4	307.08	-1321.3	1233.7	317.17
54	0.22083	NaN	NaN	NaN	-1191.8	1460.4	478.73	-1215.1	1486.1	143.07	-1193	1779.4	328.5	-1104.6	1005.2	411.31	-1105.3	1016.8	181.57	NaN	NaN	NaN	NaN	NaN	NaN	-1204	1072	461.53	-1187.9	911.26	112.44	-1174.3	890.51	478.64	-1201.4	1099.5	154.03	-1325.2	995.24	289.91	-1168.8	687.46	469.68	-1076.5	600.14	455.01	-1147.1	599.42	455.22	-1090.5	693.25	467.14	-1104.1	502.13	448.57	-1110.9	501.65	314.41	-1272.1	421.4	454.64	-1279.7	332.61	431.72	-1331.8	372.12	444.92	-1222.5	381.91	441.08	-1463.1	272.43	415.21	-1426.7	255.59	336.78	-1511.7	300.39	365.96	-1520.5	281.16	335.11	-1532.1	282.33	395.57	-1464.6	112.14	425.56	-1431.7	119.1	314.1	-1386.5	68.554	357.13	-1163.1	694.44	136.45	-1058.4	626.64	162.85	-1127.2	612.77	158.34	-1090.1	706.26	135.56	-1093	520.1	181.49	-1095.1	525.56	306.55	-1147.9	338.23	186.02	-1080.8	253.41	214.37	-1152.7	265.5	204.62	-1081.7	327.21	193.95	-1135	98.443	227.49	-1112.1	104.17	314.09	-1185.7	73.558	277.64	-1173.5	39.804	307.67	-1177.8	48.642	244.09	-1001.8	40.835	213.58	-983.36	45.553	328.92	-920.63	61.998	281.64	-1267.2	1517.1	306.87	-1316.1	1234.4	316.93
55	0.225	NaN	NaN	NaN	-1186.6	1461.1	478.62	-1209.8	1486.7	142.91	-1187.5	1780.2	328.15	-1099.4	1006	411.05	-1100.6	1017.5	181.42	NaN	NaN	NaN	NaN	NaN	NaN	-1198.8	1072.7	461.26	-1183.1	911.93	112.22	-1168.3	891.28	478.29	-1196.1	1100.2	153.81	-1320	995.96	289.56	-1160	688.45	469.36	-1066.5	602.24	454.72	-1137.3	600.68	454.85	-1081.8	695.17	466.88	-1092.9	504.03	448.46	-1100.2	503.39	314.18	-1260.2	422.94	454.59	-1268.2	334.27	431.55	-1319.9	373.51	444.86	-1210.7	383.59	440.89	-1451.4	274.2	415.02	-1415.2	257.14	336.74	-1500.3	301.36	365.69	-1509.2	281.81	334.97	-1520.9	283.49	395.42	-1451.8	114.27	426.71	-1419.2	120.25	315.25	-1374.3	69.559	358.54	-1160	695.05	136.39	-1056	626.29	162.63	-1124.8	613.07	158.22	-1087	706.22	135.33	-1091.2	520.15	181.43	-1093.1	525.57	306.44	-1146.9	338.5	185.99	-1080.1	253.36	214.29	-1152.1	265.68	204.68	-1080.7	327.14	193.8	-1134.9	98.547	227.54	-1112.1	104.25	314	-1185.7	73.625	277.63	-1173.5	39.872	307.66	-1177.8	48.717	244.06	-1001.8	40.785	213.53	-983.39	45.488	328.93	-920.6	61.909	281.56	-1261.8	1517.9	306.68	-1310.8	1235.2	316.7
56	0.22917	NaN	NaN	NaN	-1181.3	1461.9	478.51	-1204.5	1487.4	142.77	-1182	1781	327.82	-1094.2	1006.8	410.81	-1095.6	1018.2	181.26	NaN	NaN	NaN	NaN	NaN	NaN	-1193.7	1073.4	460.98	-1178.4	912.6	112.02	-1162.4	892.13	477.97	-1190.8	1101	153.57	-1314.8	996.72	289.21	-1151.1	689.54	469.03	-1056.5	604.45	454.38	-1127.6	602.04	454.48	-1073.2	697.18	466.61	-1081.8	506.06	448.31	-1089.5	505.23	313.91	-1248.4	424.43	454.48	-1256.6	335.85	431.34	-1308	374.78	444.73	-1198.9	385.28	440.66	-1439.6	275.65	414.79	-1403.5	258.41	336.65	-1488.8	301.92	365.37	-1497.8	282.02	334.8	-1509.5	284.2	395.22	-1438.5	116.14	427.86	-1406.4	121.16	316.38	-1361.6	70.491	359.97	-1156.9	695.67	136.35	-1053.6	625.96	162.43	-1122.4	613.4	158.11	-1083.9	706.2	135.12	-1089.4	520.2	181.37	-1091.1	525.57	306.35	-1145.9	338.78	185.96	-1079.5	253.33	214.2	-1151.4	265.88	204.77	-1079.8	327.09	193.66	-1134.8	98.658	227.59	-1111.9	104.33	313.94	-1185.6	73.699	277.62	-1173.4	39.948	307.65	-1177.7	48.799	244.03	-1001.7	40.733	213.48	-983.42	45.426	328.93	-920.57	61.82	281.48	-1256.4	1518.7	306.51	-1305.7	1236	316.47
57	0.23333	NaN	NaN	NaN	-1176	1462.7	478.41	-1199.2	1488.1	142.63	-1176.4	1781.8	327.49	-1089.1	1007.7	410.58	-1090.5	1019	181.09	NaN	NaN	NaN	NaN	NaN	NaN	-1188.5	1074.2	460.7	-1173.8	913.28	111.83	-1156.5	893.05	477.69	-1185.5	1101.7	153.34	-1309.6	997.51	288.87	-1142.4	690.72	468.69	-1046.7	606.75	453.98	-1118	603.51	454.12	-1064.6	699.27	466.32	-1070.8	508.18	448.13	-1079	507.15	313.62	-1236.6	425.86	454.3	-1245	337.35	431.11	-1296.2	375.92	444.54	-1187.1	386.96	440.41	-1427.6	276.78	414.52	-1391.7	259.41	336.52	-1477.2	302.07	365.01	-1486.3	281.8	334.6	-1498	284.46	395	-1424.9	117.73	429	-1393.3	121.83	317.49	-1348.4	71.344	361.42	-1153.8	696.32	136.3	-1051.2	625.65	162.26	-1120	613.75	158	-1080.8	706.19	134.94	-1087.6	520.25	181.32	-1089	525.58	306.27	-1145	339.07	185.93	-1078.9	253.33	214.12	-1150.8	266.11	204.87	-1078.8	327.05	193.52	-1134.6	98.777	227.66	-1111.8	104.43	313.9	-1185.6	73.783	277.61	-1173.4	40.032	307.63	-1177.7	48.886	244	-1001.7	40.68	213.44	-983.42	45.371	328.92	-920.53	61.726	281.41	-1251.1	1519.5	306.35	-1300.5	1236.8	316.24
58	0.2375	NaN	NaN	NaN	-1170.8	1463.4	478.3	-1194	1488.9	142.5	-1170.8	1782.6	327.18	-1084	1008.6	410.37	-1085.4	1019.7	180.9	NaN	NaN	NaN	NaN	NaN	NaN	-1183.3	1075.1	460.41	-1169.2	913.96	111.65	-1150.8	894.04	477.44	-1180.2	1102.4	153.09	-1304.5	998.32	288.55	-1133.7	691.97	468.35	-1036.9	609.14	453.54	-1108.3	605.07	453.76	-1056.1	701.43	466	-1059.9	510.4	447.92	-1068.5	509.16	313.3	-1225	427.24	454.07	-1233.3	338.76	430.86	-1284.4	376.93	444.28	-1175.3	388.63	440.14	-1415.5	277.58	414.22	-1379.8	260.14	336.35	-1465.6	301.82	364.63	-1474.7	281.15	334.4	-1486.4	284.28	394.76	-1410.9	119.05	430.12	-1379.8	122.25	318.57	-1334.8	72.115	362.86	-1150.8	696.97	136.26	-1048.8	625.38	162.11	-1117.6	614.11	157.89	-1077.7	706.2	134.78	-1085.9	520.32	181.28	-1087	525.59	306.2	-1144	339.38	185.9	-1078.3	253.34	214.03	-1150.3	266.36	204.99	-1077.9	327.02	193.4	-1134.5	98.907	227.73	-1111.7	104.54	313.89	-1185.5	73.879	277.6	-1173.4	40.125	307.61	-1177.7	48.978	243.98	-1001.7	40.626	213.4	-983.39	45.322	328.91	-920.49	61.625	281.33	-1245.7	1520.3	306.2	-1295.3	1237.7	316.01
59	0.24167	NaN	NaN	NaN	-1165.6	1464.3	478.2	-1188.7	1489.7	142.38	-1165.2	1783.4	326.88	-1078.9	1009.6	410.16	-1080.1	1020.5	180.71	NaN	NaN	NaN	NaN	NaN	NaN	-1178.2	1076	460.12	-1164.7	914.66	111.49	-1145	895.09	477.23	-1174.9	1103.2	152.85	-1299.3	999.16	288.24	-1125	693.28	468.03	-1027.2	611.61	453.06	-1098.8	606.7	453.42	-1047.6	703.64	465.67	-1049.1	512.69	447.67	-1058.1	511.24	312.94	-1213.5	428.54	453.79	-1221.6	340.08	430.59	-1272.6	377.81	443.96	-1163.5	390.27	439.83	-1403.2	278.05	413.91	-1367.7	260.58	336.16	-1453.9	301.18	364.24	-1463	280.08	334.19	-1474.7	283.67	394.52	-1396.6	120.07	431.24	-1366	122.43	319.62	-1320.8	72.801	364.3	-1147.7	697.64	136.22	-1046.4	625.13	161.99	-1115.1	614.49	157.79	-1074.6	706.23	134.65	-1084.2	520.4	181.25	-1084.9	525.62	306.12	-1143.1	339.7	185.86	-1077.7	253.38	213.95	-1149.7	266.64	205.12	-1077	327.01	193.28	-1134.4	99.049	227.8	-1111.5	104.65	313.92	-1185.5	73.99	277.6	-1173.4	40.228	307.59	-1177.6	49.078	243.95	-1001.7	40.573	213.37	-983.34	45.282	328.89	-920.45	61.515	281.27	-1240.4	1521.1	306.06	-1290.2	1238.5	315.78
60	0.24583	NaN	NaN	NaN	-1160.4	1465.1	478.08	-1183.5	1490.5	142.26	-1159.5	1784.2	326.58	-1073.8	1010.6	409.97	-1074.8	1021.2	180.5	NaN	NaN	NaN	NaN	NaN	NaN	-1173	1076.9	459.83	-1160.2	915.35	111.34	-1139.4	896.19	477.06	-1169.6	1103.9	152.6	-1294.1	1000	287.94	-1116.5	694.65	467.72	-1017.7	614.14	452.54	-1089.3	608.4	453.08	-1039.2	705.9	465.33	-1038.5	515.05	447.39	-1047.8	513.39	312.55	-1202.1	429.77	453.45	-1209.8	341.28	430.32	-1261	378.54	443.6	-1151.7	391.88	439.49	-1390.8	278.19	413.59	-1355.5	260.74	335.95	-1442.1	300.15	363.84	-1451.1	278.61	333.99	-1462.8	282.63	394.29	-1381.9	120.82	432.35	-1351.9	122.38	320.64	-1306.3	73.408	365.72	-1144.6	698.32	136.17	-1044.1	624.91	161.89	-1112.7	614.89	157.68	-1071.5	706.28	134.54	-1082.5	520.48	181.22	-1082.8	525.66	306.04	-1142.1	340.04	185.81	-1077.2	253.43	213.86	-1149.1	266.94	205.26	-1076.2	327.01	193.18	-1134.3	99.203	227.89	-1111.3	104.76	313.97	-1185.4	74.116	277.6	-1173.4	40.34	307.57	-1177.6	49.183	243.93	-1001.7	40.522	213.34	-983.25	45.248	328.86	-920.4	61.392	281.21	-1235.1	1522	305.93	-1285	1239.4	315.56
